<svg width="0" height="0" class="hidden">
  <symbol xmlns="http://www.w3.org/2000/svg" viewBox="0 0 192 192" id="logo-youtube">
    <path d="M180.3 53.4c-2-7.6-8-13.6-15.6-15.7C151 34 96 34 96 34s-55 0-68.8 3.7c-7.6 2-13.5 8-15.6 15.7C8 67.2 8 96 8 96s0 28.8 3.7 42.6c2 7.6 8 13.6 15.6 15.7C41 158 96 158 96 158s55 0 68.8-3.7c7.6-2 13.5-8 15.6-15.7C184 124.8 184 96 184 96s0-28.8-3.7-42.6z" fill="#ee3124"></path>
    <path fill="#fff" d="M78 122.2V69.8L124 96z"></path>
  </symbol>
  <symbol xmlns="http://www.w3.org/2000/svg" viewBox="0 0 512 512" id="logo-facebook">
    <path fill="#3b5998" d="M256.417 50c-113.771 0-206 92.229-206 206s92.229 206 206 206 206-92.229 206-206-92.229-206-206-206zm60.968 121.192h-28.789c-10.162 0-12.28 4.163-12.28 14.678v25.404h41.069l-3.951 44.596h-37.118v133.227h-53.2V256.435H195.45v-45.16h27.666V175.71c0-33.379 17.849-50.807 57.437-50.807h36.833v46.289z"></path>
  </symbol>
  <symbol xmlns="http://www.w3.org/2000/svg" viewBox="0 0 382 382" id="logo-linkedin">
    <path d="M347.445 0H34.555C15.471 0 0 15.471 0 34.555v312.889C0 366.529 15.471 382 34.555 382h312.889C366.529 382 382 366.529 382 347.444V34.555C382 15.471 366.529 0 347.445 0zM118.207 329.844c0 5.554-4.502 10.056-10.056 10.056H65.345c-5.554 0-10.056-4.502-10.056-10.056V150.403c0-5.554 4.502-10.056 10.056-10.056h42.806c5.554 0 10.056 4.502 10.056 10.056v179.441zM86.748 123.432c-22.459 0-40.666-18.207-40.666-40.666S64.289 42.1 86.748 42.1s40.666 18.207 40.666 40.666-18.206 40.666-40.666 40.666zM341.91 330.654a9.247 9.247 0 01-9.246 9.246H286.73a9.247 9.247 0 01-9.246-9.246v-84.168c0-12.556 3.683-55.021-32.813-55.021-28.309 0-34.051 29.066-35.204 42.11v97.079a9.246 9.246 0 01-9.246 9.246h-44.426a9.247 9.247 0 01-9.246-9.246V149.593a9.247 9.247 0 019.246-9.246h44.426a9.247 9.247 0 019.246 9.246v15.655c10.497-15.753 26.097-27.912 59.312-27.912 73.552 0 73.131 68.716 73.131 106.472v86.846z" fill="#0077b7"></path>
  </symbol>
  <symbol xmlns="http://www.w3.org/2000/svg" viewBox="0 0 512 512" id="logo-telegram">
    <path d="M491.348 256a235.348 235.97 0 11-470.696 0 235.348 235.97 0 11470.696 0z" fill="#259bd7"></path>
    <path d="M119.217 264.698s-6.096-5.49-5.059-8.672c1.304-4 11.563-5.058 11.563-5.058L353.35 161.36s8.17-2.567 11.562-.722c3.885 2.112 6.503 11.562 6.503 11.562L325.89 370.924s-2.421 3.622-4.336 4.336c-3.168 1.182-10.117-.722-10.117-.722l-59.978-46.249-37.577 37.577-10.117-7.949-22.402-70.818z" fill="#fff"></path>
    <path d="M182.447 287.1l138.746-89.969 5.058 1.446-1.807 3.974-109.84 99.362-5.058 59.979-6.143-4.336z" fill="#b1c8d3"></path>
    <path d="M215.688 302.274c0 1.446 35.048 27.1 35.048 27.1l-35.77 36.13-5.42-5.058z" fill="#88bdd8"></path>
  </symbol>
  <symbol xmlns="http://www.w3.org/2000/svg" viewBox="0 0 24 24" id="menu">
    <path d="M21.5 24h-19A2.503 2.503 0 010 21.5v-19C0 1.122 1.121 0 2.5 0h19C22.879 0 24 1.122 24 2.5v19c0 1.378-1.121 2.5-2.5 2.5zM2.5 1C1.673 1 1 1.673 1 2.5v19c0 .827.673 1.5 1.5 1.5h19c.827 0 1.5-.673 1.5-1.5v-19c0-.827-.673-1.5-1.5-1.5z"></path>
    <path d="M16.5 8h-9a.5.5 0 010-1h9a.5.5 0 010 1zm0 4.5h-9a.5.5 0 010-1h9a.5.5 0 010 1zm0 4.5h-9a.5.5 0 010-1h9a.5.5 0 010 1z"></path>
  </symbol>
  <symbol xmlns="http://www.w3.org/2000/svg" preserveAspectRatio="xMidYMid" viewBox="0 0 256 293" id="logo-discord">
    <path d="M226.011 0H29.99C13.459 0 0 13.458 0 30.135v197.778c0 16.677 13.458 30.135 29.989 30.135h165.888l-7.754-27.063 18.725 17.408 17.7 16.384L256 292.571V30.135C256 13.458 242.542 0 226.011 0zm-56.466 191.05s-5.266-6.291-9.655-11.85c19.164-5.413 26.478-17.408 26.478-17.408-5.998 3.95-11.703 6.73-16.823 8.63-7.314 3.073-14.336 5.12-21.211 6.291-14.044 2.633-26.917 1.902-37.888-.146-8.339-1.61-15.507-3.95-21.504-6.29-3.365-1.317-7.022-2.926-10.68-4.974-.438-.293-.877-.439-1.316-.732a2.022 2.022 0 01-.585-.438c-2.633-1.463-4.096-2.487-4.096-2.487s7.022 11.703 25.6 17.261c-4.388 5.56-9.801 12.142-9.801 12.142-32.33-1.024-44.617-22.235-44.617-22.235 0-47.104 21.065-85.285 21.065-85.285 21.065-15.799 41.106-15.36 41.106-15.36l1.463 1.756C80.75 77.53 68.608 89.088 68.608 89.088s3.218-1.755 8.63-4.242c15.653-6.876 28.088-8.777 33.208-9.216.877-.147 1.609-.293 2.487-.293a123.776 123.776 0 0129.55-.292c13.896 1.609 28.818 5.705 44.031 14.043 0 0-11.556-10.971-36.425-18.578l2.048-2.34s20.041-.44 41.106 15.36c0 0 21.066 38.18 21.066 85.284 0 0-12.435 21.211-44.764 22.235zm-68.023-68.316c-8.338 0-14.92 7.314-14.92 16.237 0 8.924 6.728 16.238 14.92 16.238 8.339 0 14.921-7.314 14.921-16.238.147-8.923-6.582-16.237-14.92-16.237m53.394 0c-8.339 0-14.922 7.314-14.922 16.237 0 8.924 6.73 16.238 14.922 16.238 8.338 0 14.92-7.314 14.92-16.238 0-8.923-6.582-16.237-14.92-16.237" fill="#7289DA"></path>
  </symbol>
</svg>